<mxfile host="app.diagrams.net" agent="Mozilla/5.0 (Windows NT 10.0; Win64; x64) AppleWebKit/537.36 (KHTML, like Gecko) Chrome/134.0.0.0 Safari/537.36 Edg/134.0.0.0" version="26.1.1">
  <diagram name="Page-1" id="NSbezfYNf8va_lxm2zXU">
    <mxGraphModel dx="2110" dy="2427" grid="0" gridSize="10" guides="1" tooltips="1" connect="1" arrows="1" fold="1" page="0" pageScale="1" pageWidth="850" pageHeight="1100" math="0" shadow="0">
      <root>
        <mxCell id="0" />
        <mxCell id="1" parent="0" />
        <mxCell id="Vs3KduJTQNHEj2ife3B--2" value="&lt;p style=&quot;margin:0px;margin-top:4px;text-align:center;&quot;&gt;&lt;b&gt;Employee&lt;/b&gt;&lt;/p&gt;&lt;hr size=&quot;1&quot; style=&quot;border-style:solid;&quot;&gt;&lt;p style=&quot;margin:0px;margin-left:4px;&quot;&gt;- name: String&lt;/p&gt;&lt;p style=&quot;margin:0px;margin-left:4px;&quot;&gt;- idEmployee: int&lt;/p&gt;&lt;p style=&quot;margin:0px;margin-left:4px;&quot;&gt;- workDuration: int&lt;/p&gt;&lt;hr size=&quot;1&quot; style=&quot;border-style:solid;&quot;&gt;&lt;p style=&quot;margin:0px;margin-left:4px;&quot;&gt;+ WorkDuration(TaskManagement): void&lt;/p&gt;&lt;p style=&quot;margin:0px;margin-left:4px;&quot;&gt;+ compareTo(Object): int&lt;/p&gt;&lt;p style=&quot;margin:0px;margin-left:4px;&quot;&gt;+ toString(): String&lt;/p&gt;&lt;p style=&quot;margin:0px;margin-left:4px;&quot;&gt;&lt;br&gt;&lt;/p&gt;" style="verticalAlign=top;align=left;overflow=fill;html=1;whiteSpace=wrap;" vertex="1" parent="1">
          <mxGeometry x="-309" y="-23" width="228" height="133" as="geometry" />
        </mxCell>
        <mxCell id="Vs3KduJTQNHEj2ife3B--3" value="&lt;p style=&quot;margin:0px;margin-top:4px;text-align:center;&quot;&gt;&lt;b&gt;TaskManagement&lt;/b&gt;&lt;/p&gt;&lt;hr size=&quot;1&quot; style=&quot;border-style:solid;&quot;&gt;&lt;p style=&quot;margin:0px;margin-left:4px;&quot;&gt;- allTasks: ArrayList&amp;lt;Task&amp;gt;&lt;/p&gt;&lt;p style=&quot;margin:0px;margin-left:4px;&quot;&gt;- allEmployees: ArrayList&amp;lt;Employee&amp;gt;&lt;/p&gt;&lt;p style=&quot;margin:0px;margin-left:4px;&quot;&gt;- map:Map&amp;lt;Employee,ArrayList&amp;lt;Task&amp;gt;&amp;gt;&lt;/p&gt;&lt;hr size=&quot;1&quot; style=&quot;border-style:solid;&quot;&gt;&lt;p style=&quot;margin:0px;margin-left:4px;&quot;&gt;+ addTask(Task): void&lt;/p&gt;&lt;p style=&quot;margin:0px;margin-left:4px;&quot;&gt;+ addEmployee(Employee): void&lt;/p&gt;&lt;p style=&quot;margin:0px;margin-left:4px;&quot;&gt;+ verificareAdaugare(int,int): void&lt;/p&gt;&lt;p style=&quot;margin:0px;margin-left:4px;&quot;&gt;+ verificareStergere(int,int): void&lt;/p&gt;&lt;p style=&quot;margin:0px;margin-left:4px;&quot;&gt;+ assignTaskToEmployee(int,int): void&lt;/p&gt;&lt;p style=&quot;margin:0px;margin-left:4px;&quot;&gt;+ calculateEmployeeWorkDuration(int): int&lt;/p&gt;&lt;p style=&quot;margin:0px;margin-left:4px;&quot;&gt;+ modifyTaskStatus(int,int): void&lt;/p&gt;&lt;p style=&quot;margin:0px;margin-left:4px;&quot;&gt;&lt;br&gt;&lt;/p&gt;&lt;p style=&quot;margin:0px;margin-left:4px;&quot;&gt;&lt;br&gt;&lt;/p&gt;&lt;p style=&quot;margin:0px;margin-left:4px;&quot;&gt;&lt;br&gt;&lt;/p&gt;&lt;p style=&quot;margin:0px;margin-left:4px;&quot;&gt;&lt;br&gt;&lt;/p&gt;" style="verticalAlign=top;align=left;overflow=fill;html=1;whiteSpace=wrap;" vertex="1" parent="1">
          <mxGeometry x="-155" y="210" width="271" height="202" as="geometry" />
        </mxCell>
        <mxCell id="Vs3KduJTQNHEj2ife3B--4" value="&lt;p style=&quot;margin:0px;margin-top:4px;text-align:center;&quot;&gt;&lt;b&gt;Task&lt;/b&gt;&lt;/p&gt;&lt;hr size=&quot;1&quot; style=&quot;border-style:solid;&quot;&gt;&lt;p style=&quot;margin:0px;margin-left:4px;&quot;&gt;- idTask: int&lt;/p&gt;&lt;p style=&quot;margin:0px;margin-left:4px;&quot;&gt;- statusTask: String&lt;/p&gt;&lt;hr size=&quot;1&quot; style=&quot;border-style:solid;&quot;&gt;&lt;p style=&quot;margin:0px;margin-left:4px;&quot;&gt;+ toString(): String&lt;/p&gt;&lt;p style=&quot;margin:0px;margin-left:4px;&quot;&gt;+ &lt;b&gt;estimateDuration&lt;/b&gt;: int&lt;/p&gt;&lt;p style=&quot;margin:0px;margin-left:4px;&quot;&gt;&lt;br&gt;&lt;/p&gt;" style="verticalAlign=top;align=left;overflow=fill;html=1;whiteSpace=wrap;" vertex="1" parent="1">
          <mxGeometry x="305" y="292" width="160" height="124" as="geometry" />
        </mxCell>
        <mxCell id="Vs3KduJTQNHEj2ife3B--5" value="&lt;p style=&quot;margin:0px;margin-top:4px;text-align:center;&quot;&gt;&lt;b&gt;SimpleTask&lt;/b&gt;&lt;/p&gt;&lt;hr size=&quot;1&quot; style=&quot;border-style:solid;&quot;&gt;&lt;p style=&quot;margin:0px;margin-left:4px;&quot;&gt;- startHour: int&lt;/p&gt;&lt;p style=&quot;margin:0px;margin-left:4px;&quot;&gt;- endHour: int&lt;/p&gt;&lt;p style=&quot;margin:0px;margin-left:4px;&quot;&gt;- duration: int&lt;/p&gt;&lt;hr size=&quot;1&quot; style=&quot;border-style:solid;&quot;&gt;&lt;p style=&quot;margin:0px;margin-left:4px;&quot;&gt;+ estimateDuration(): int&lt;/p&gt;&lt;p style=&quot;margin:0px;margin-left:4px;&quot;&gt;+ toString(): String&lt;/p&gt;" style="verticalAlign=top;align=left;overflow=fill;html=1;whiteSpace=wrap;" vertex="1" parent="1">
          <mxGeometry x="109" y="478" width="210" height="137" as="geometry" />
        </mxCell>
        <mxCell id="Vs3KduJTQNHEj2ife3B--6" value="&lt;p style=&quot;margin:0px;margin-top:4px;text-align:center;&quot;&gt;&lt;b&gt;ComplexTask&lt;/b&gt;&lt;/p&gt;&lt;hr size=&quot;1&quot; style=&quot;border-style:solid;&quot;&gt;&lt;p style=&quot;margin:0px;margin-left:4px;&quot;&gt;- taskComplex: ArrayList&amp;lt;Task&amp;gt;&lt;/p&gt;&lt;p style=&quot;margin:0px;margin-left:4px;&quot;&gt;- duration: int&lt;/p&gt;&lt;hr size=&quot;1&quot; style=&quot;border-style:solid;&quot;&gt;&lt;p style=&quot;margin:0px;margin-left:4px;&quot;&gt;+ addTask(Task): void&lt;/p&gt;&lt;p style=&quot;margin:0px;margin-left:4px;&quot;&gt;+ deleteTask(Task): void&lt;/p&gt;&lt;p style=&quot;margin:0px;margin-left:4px;&quot;&gt;+ estimateDuration(): int&lt;/p&gt;&lt;p style=&quot;margin:0px;margin-left:4px;&quot;&gt;+ toString():String&lt;/p&gt;" style="verticalAlign=top;align=left;overflow=fill;html=1;whiteSpace=wrap;" vertex="1" parent="1">
          <mxGeometry x="465" y="478" width="203" height="136" as="geometry" />
        </mxCell>
        <mxCell id="Vs3KduJTQNHEj2ife3B--7" value="&lt;p style=&quot;margin:0px;margin-top:4px;text-align:center;&quot;&gt;&lt;b&gt;LoadSave&lt;/b&gt;&lt;/p&gt;&lt;hr size=&quot;1&quot; style=&quot;border-style:solid;&quot;&gt;&lt;p style=&quot;margin:0px;margin-left:4px;&quot;&gt;- TASK: String&lt;/p&gt;&lt;p style=&quot;margin:0px;margin-left:4px;&quot;&gt;-MAP: String&lt;/p&gt;&lt;p style=&quot;margin:0px;margin-left:4px;&quot;&gt;-EMPLOYEE: String&lt;/p&gt;&lt;hr size=&quot;1&quot; style=&quot;border-style:solid;&quot;&gt;&lt;p style=&quot;margin:0px;margin-left:4px;&quot;&gt;+ saveMap(Map&amp;lt;Employee, ArrayList&amp;lt;Task&amp;gt;&amp;gt;: void&lt;/p&gt;&lt;p style=&quot;margin:0px;margin-left:4px;&quot;&gt;+loadMap():&lt;span style=&quot;background-color: transparent; color: light-dark(rgb(0, 0, 0), rgb(255, 255, 255));&quot;&gt;Map&amp;lt;Employee, ArrayList&amp;lt;Task&amp;gt;&amp;gt;&lt;/span&gt;&lt;/p&gt;&lt;p style=&quot;margin:0px;margin-left:4px;&quot;&gt;&lt;span style=&quot;background-color: transparent; color: light-dark(rgb(0, 0, 0), rgb(255, 255, 255));&quot;&gt;+saveAllTasks(ArrayList&amp;lt;Task&amp;gt;): void&lt;/span&gt;&lt;/p&gt;&lt;p style=&quot;margin:0px;margin-left:4px;&quot;&gt;&lt;span style=&quot;background-color: transparent; color: light-dark(rgb(0, 0, 0), rgb(255, 255, 255));&quot;&gt;+loadAllTasks(): ArrayList&amp;lt;Task&amp;gt;&lt;/span&gt;&lt;/p&gt;&lt;p style=&quot;margin:0px;margin-left:4px;&quot;&gt;&lt;span style=&quot;background-color: transparent; color: light-dark(rgb(0, 0, 0), rgb(255, 255, 255));&quot;&gt;+saveEmployees(ArrayList&amp;lt;Employee&amp;gt;): void&lt;/span&gt;&lt;/p&gt;&lt;p style=&quot;margin:0px;margin-left:4px;&quot;&gt;&lt;span style=&quot;background-color: transparent; color: light-dark(rgb(0, 0, 0), rgb(255, 255, 255));&quot;&gt;+loadEmployee(): ArrayList&amp;lt;Employee&amp;gt;&lt;/span&gt;&lt;/p&gt;" style="verticalAlign=top;align=left;overflow=fill;html=1;whiteSpace=wrap;" vertex="1" parent="1">
          <mxGeometry x="3" y="-292" width="312" height="189" as="geometry" />
        </mxCell>
        <mxCell id="Vs3KduJTQNHEj2ife3B--8" value="&lt;p style=&quot;margin:0px;margin-top:4px;text-align:center;&quot;&gt;&lt;b&gt;Interfata&lt;/b&gt;&lt;/p&gt;&lt;hr size=&quot;1&quot; style=&quot;border-style:solid;&quot;&gt;&lt;p style=&quot;margin:0px;margin-left:4px;&quot;&gt;employees: ArrayList&amp;lt;Employee&amp;gt;&lt;/p&gt;&lt;p style=&quot;margin:0px;margin-left:4px;&quot;&gt;allTasks: ArrayList&amp;lt;Task&amp;gt;&lt;/p&gt;&lt;p style=&quot;margin:0px;margin-left:4px;&quot;&gt;manage: TaskManagement&lt;/p&gt;&lt;p style=&quot;margin:0px;margin-left:4px;&quot;&gt;display: Map&amp;lt;Employee,ArrayList&amp;lt;Task&amp;gt;&amp;gt;&lt;/p&gt;&lt;p style=&quot;margin:0px;margin-left:4px;&quot;&gt;statistici: Utility&lt;/p&gt;&lt;p style=&quot;margin:0px;margin-left:4px;&quot;&gt;-nrTaskuri: Map&amp;lt;String,Map&amp;lt;String,Integer&amp;gt;&amp;gt;&lt;/p&gt;&lt;hr size=&quot;1&quot; style=&quot;border-style:solid;&quot;&gt;&lt;p style=&quot;margin:0px;margin-left:4px;&quot;&gt;+ actionPerformed(ActionEvent): void&lt;/p&gt;" style="verticalAlign=top;align=left;overflow=fill;html=1;whiteSpace=wrap;" vertex="1" parent="1">
          <mxGeometry x="454" y="-120" width="262" height="161" as="geometry" />
        </mxCell>
        <mxCell id="Vs3KduJTQNHEj2ife3B--9" value="&lt;p style=&quot;margin:0px;margin-top:4px;text-align:center;&quot;&gt;&lt;b&gt;Utility&lt;/b&gt;&lt;/p&gt;&lt;hr size=&quot;1&quot; style=&quot;border-style:solid;&quot;&gt;&lt;p style=&quot;margin:0px;margin-left:4px;&quot;&gt;-employees: ArrayList&amp;lt;Employee&amp;gt;&lt;/p&gt;&lt;p style=&quot;margin:0px;margin-left:4px;&quot;&gt;-taskStatus: Map&amp;lt;String,Integer&amp;gt;&lt;/p&gt;&lt;p style=&quot;margin:0px;margin-left:4px;&quot;&gt;-nrTaskuri: Map&amp;lt;String,Map&amp;lt;String,Integer&amp;gt;&amp;gt;&lt;/p&gt;&lt;hr size=&quot;1&quot; style=&quot;border-style:solid;&quot;&gt;&lt;p style=&quot;margin:0px;margin-left:4px;&quot;&gt;+ workDuration40(TaskManagement): ArrayList&amp;lt;Employee&amp;gt;&lt;/p&gt;&lt;p style=&quot;margin:0px;margin-left:4px;&quot;&gt;+ numberOfTasks(TaskManagement): void&lt;/p&gt;&lt;p style=&quot;margin:0px;margin-left:4px;&quot;&gt;&lt;br&gt;&lt;/p&gt;" style="verticalAlign=top;align=left;overflow=fill;html=1;whiteSpace=wrap;" vertex="1" parent="1">
          <mxGeometry x="757" y="199" width="349" height="156" as="geometry" />
        </mxCell>
        <mxCell id="Vs3KduJTQNHEj2ife3B--12" value="Extends" style="endArrow=block;endSize=16;endFill=0;html=1;rounded=0;fontSize=12;curved=1;" edge="1" parent="1">
          <mxGeometry width="160" relative="1" as="geometry">
            <mxPoint x="220" y="478" as="sourcePoint" />
            <mxPoint x="328" y="419" as="targetPoint" />
          </mxGeometry>
        </mxCell>
        <mxCell id="Vs3KduJTQNHEj2ife3B--14" value="Extends" style="endArrow=block;endSize=16;endFill=0;html=1;rounded=0;fontSize=12;curved=1;entryX=0.75;entryY=1;entryDx=0;entryDy=0;" edge="1" parent="1" target="Vs3KduJTQNHEj2ife3B--4">
          <mxGeometry width="160" relative="1" as="geometry">
            <mxPoint x="537" y="475" as="sourcePoint" />
            <mxPoint x="645" y="416" as="targetPoint" />
          </mxGeometry>
        </mxCell>
        <mxCell id="Vs3KduJTQNHEj2ife3B--15" value="" style="endArrow=diamondThin;endFill=0;endSize=24;html=1;rounded=0;fontSize=12;curved=1;entryX=0.151;entryY=0.003;entryDx=0;entryDy=0;entryPerimeter=0;" edge="1" parent="1" target="Vs3KduJTQNHEj2ife3B--3">
          <mxGeometry width="160" relative="1" as="geometry">
            <mxPoint x="-199" y="112" as="sourcePoint" />
            <mxPoint x="185" y="222" as="targetPoint" />
          </mxGeometry>
        </mxCell>
        <mxCell id="Vs3KduJTQNHEj2ife3B--16" value="" style="endArrow=diamondThin;endFill=0;endSize=24;html=1;rounded=0;fontSize=12;curved=1;entryX=1;entryY=0.25;entryDx=0;entryDy=0;exitX=0;exitY=0.25;exitDx=0;exitDy=0;" edge="1" parent="1" source="Vs3KduJTQNHEj2ife3B--4" target="Vs3KduJTQNHEj2ife3B--3">
          <mxGeometry width="160" relative="1" as="geometry">
            <mxPoint x="380" y="280" as="sourcePoint" />
            <mxPoint x="316" y="222" as="targetPoint" />
          </mxGeometry>
        </mxCell>
        <mxCell id="Vs3KduJTQNHEj2ife3B--17" value="&lt;i&gt;&amp;lt;&amp;lt;abstract&amp;gt;&amp;gt;&lt;/i&gt;" style="text;html=1;align=center;verticalAlign=middle;resizable=0;points=[];autosize=1;strokeColor=none;fillColor=none;fontSize=16;" vertex="1" parent="1">
          <mxGeometry x="329" y="259" width="112" height="31" as="geometry" />
        </mxCell>
        <mxCell id="Vs3KduJTQNHEj2ife3B--18" value="" style="endArrow=diamondThin;endFill=1;endSize=24;html=1;rounded=0;fontSize=12;curved=1;" edge="1" parent="1">
          <mxGeometry width="160" relative="1" as="geometry">
            <mxPoint x="-18" y="207" as="sourcePoint" />
            <mxPoint x="452" y="-32" as="targetPoint" />
          </mxGeometry>
        </mxCell>
        <mxCell id="Vs3KduJTQNHEj2ife3B--21" value="" style="endArrow=diamondThin;endFill=1;endSize=24;html=1;rounded=0;fontSize=12;curved=1;" edge="1" parent="1" target="Vs3KduJTQNHEj2ife3B--8">
          <mxGeometry width="160" relative="1" as="geometry">
            <mxPoint x="885" y="193" as="sourcePoint" />
            <mxPoint x="936" y="77" as="targetPoint" />
          </mxGeometry>
        </mxCell>
        <mxCell id="Vs3KduJTQNHEj2ife3B--22" value="" style="endArrow=diamondThin;endFill=0;endSize=24;html=1;rounded=0;fontSize=12;curved=1;entryX=0;entryY=0.144;entryDx=0;entryDy=0;entryPerimeter=0;" edge="1" parent="1" target="Vs3KduJTQNHEj2ife3B--9">
          <mxGeometry width="160" relative="1" as="geometry">
            <mxPoint x="112" y="217" as="sourcePoint" />
            <mxPoint x="272" y="217" as="targetPoint" />
          </mxGeometry>
        </mxCell>
        <mxCell id="Vs3KduJTQNHEj2ife3B--23" value="" style="endArrow=diamondThin;endFill=0;endSize=24;html=1;rounded=0;fontSize=12;curved=1;entryX=0.019;entryY=0.403;entryDx=0;entryDy=0;entryPerimeter=0;" edge="1" parent="1" target="Vs3KduJTQNHEj2ife3B--8">
          <mxGeometry width="160" relative="1" as="geometry">
            <mxPoint x="-79" y="-14" as="sourcePoint" />
            <mxPoint x="81" y="-14" as="targetPoint" />
          </mxGeometry>
        </mxCell>
        <mxCell id="Vs3KduJTQNHEj2ife3B--26" value="" style="endArrow=diamondThin;endFill=0;endSize=24;html=1;rounded=0;fontSize=12;curved=1;exitX=0.5;exitY=1;exitDx=0;exitDy=0;entryX=1;entryY=0;entryDx=0;entryDy=0;" edge="1" parent="1" source="Vs3KduJTQNHEj2ife3B--8" target="Vs3KduJTQNHEj2ife3B--4">
          <mxGeometry width="160" relative="1" as="geometry">
            <mxPoint x="441" y="125" as="sourcePoint" />
            <mxPoint x="601" y="125" as="targetPoint" />
          </mxGeometry>
        </mxCell>
        <mxCell id="Vs3KduJTQNHEj2ife3B--28" value="" style="endArrow=open;endSize=12;dashed=1;html=1;rounded=0;fontSize=12;curved=1;exitX=0.124;exitY=1.014;exitDx=0;exitDy=0;exitPerimeter=0;entryX=0.823;entryY=0.042;entryDx=0;entryDy=0;entryPerimeter=0;" edge="1" parent="1" source="Vs3KduJTQNHEj2ife3B--7" target="Vs3KduJTQNHEj2ife3B--2">
          <mxGeometry width="160" relative="1" as="geometry">
            <mxPoint x="-99.5" y="-82" as="sourcePoint" />
            <mxPoint x="60.5" y="-82" as="targetPoint" />
          </mxGeometry>
        </mxCell>
        <mxCell id="Vs3KduJTQNHEj2ife3B--29" value="" style="endArrow=open;endSize=12;dashed=1;html=1;rounded=0;fontSize=12;curved=1;exitX=0.124;exitY=1.014;exitDx=0;exitDy=0;exitPerimeter=0;entryX=0.126;entryY=0.027;entryDx=0;entryDy=0;entryPerimeter=0;" edge="1" parent="1" target="Vs3KduJTQNHEj2ife3B--4">
          <mxGeometry width="160" relative="1" as="geometry">
            <mxPoint x="268" y="-97" as="sourcePoint" />
            <mxPoint x="105" y="-14" as="targetPoint" />
          </mxGeometry>
        </mxCell>
        <mxCell id="Vs3KduJTQNHEj2ife3B--30" value="" style="endArrow=open;endSize=12;dashed=1;html=1;rounded=0;fontSize=12;curved=1;exitX=0.338;exitY=1.014;exitDx=0;exitDy=0;exitPerimeter=0;entryX=0.25;entryY=0;entryDx=0;entryDy=0;" edge="1" parent="1" source="Vs3KduJTQNHEj2ife3B--7" target="Vs3KduJTQNHEj2ife3B--3">
          <mxGeometry width="160" relative="1" as="geometry">
            <mxPoint x="62" y="-80" as="sourcePoint" />
            <mxPoint x="-101" y="3" as="targetPoint" />
          </mxGeometry>
        </mxCell>
        <mxCell id="Vs3KduJTQNHEj2ife3B--31" value="" style="endArrow=open;endSize=12;dashed=1;html=1;rounded=0;fontSize=12;curved=1;exitX=0.5;exitY=1;exitDx=0;exitDy=0;entryX=0.75;entryY=0;entryDx=0;entryDy=0;" edge="1" parent="1" source="Vs3KduJTQNHEj2ife3B--8" target="Vs3KduJTQNHEj2ife3B--6">
          <mxGeometry width="160" relative="1" as="geometry">
            <mxPoint x="648" y="57" as="sourcePoint" />
            <mxPoint x="485" y="140" as="targetPoint" />
            <Array as="points">
              <mxPoint x="568" y="95" />
            </Array>
          </mxGeometry>
        </mxCell>
        <mxCell id="Vs3KduJTQNHEj2ife3B--33" value="" style="endArrow=open;endSize=12;dashed=1;html=1;rounded=0;fontSize=12;curved=1;exitX=0.124;exitY=1.014;exitDx=0;exitDy=0;exitPerimeter=0;entryX=0.25;entryY=0;entryDx=0;entryDy=0;" edge="1" parent="1" target="Vs3KduJTQNHEj2ife3B--5">
          <mxGeometry width="160" relative="1" as="geometry">
            <mxPoint x="454" y="41" as="sourcePoint" />
            <mxPoint x="291" y="124" as="targetPoint" />
            <Array as="points">
              <mxPoint x="260" y="33" />
            </Array>
          </mxGeometry>
        </mxCell>
      </root>
    </mxGraphModel>
  </diagram>
</mxfile>
